# xmcd
#
# Track frame offsets:
# 150
# 17520
# 36500
# 41450
# 59960
# 79162
# 84077
# 101682
# 118237
# 120327
# 142280
# 160125
# 183045
# 199792
# 204145
# 220417
# 221612
# 239510
# 258407
# 269200
# 287157
# 291962
# 311890
# 329077
# 346292
#
# Disc length: 4651 seconds
#
#
# Revision: 11
# Processed by: cddbd v1.5.1PL0 Copyright (c) Steve Scherf et al.
# Submitted via: FreeRIP 2.60 
#
DISCID=91122919
DTITLE=P. Diddy and The Bad Boy Family - The Saga Continues - The Saga Continues
DYEAR=2001
DGENRE=Hip-Hop
TTITLE0=The Saga Continues (feat. P. Diddy, G. Dep, Black Rob and Loon)
TTITLE1=Bad Boy For Life (feat. P. Diddy, Black Rob and Mark Curry)
TTITLE2=Toe Game (Interlude)
TTITLE3=That's Crazy (feat. Black Rob, P. Diddy and G. Dep)
TTITLE4=Let's Get It (feat. G. Dep, P. Diddy and Black Rob)
TTITLE5=Shiny Suit Man (Interlude)
TTITLE6=Diddy (feat. P.Diddy)
TTITLE7=Blast Off (feat. G. Dep, Mark Curry and Loon)
TTITLE8=Airport (Interlude)
TTITLE9=Roll With Me (feat. P. Diddy, Faith Evans, Eightball and MJG)
TTITLE10=On Top (feat. Marsha, P. Diddy and Loon)
TTITLE11=Where's Sean? (feat. P. Diddy, Big Azz Ko, Black Rob, Kain, Loon, Mark Curry and Bristal)
TTITLE12=Child Of The Ghetto (feat. G. Dep)
TTITLE13=Incomplete (Interlude)
TTITLE14=So Complete (feat. Cheri Dennis)
TTITLE15=Smoke (Interlude)
TTITLE16=Lonely (feat. P. Diddy, Kain, Mark Curry and Kokane)
TTITLE17=I Need A Girl (feat. P. Diddy, Loon, Mario Winans, Lo and Jack)
TTITLE18=Nothing's Gonna Stop Me Now (Interlude)
TTITLE19=If You Want This Money (feat. P. Diddy, G. Dep and The Hoodfellaz)
TTITLE20=I Don't Like That (Interlude)
TTITLE21=Back For Good Now (feat. P. Diddy, Black Rob, Loon and Cheri Dennis)
TTITLE22=Can't Believe (feat. Faith Evans and Carl Thomas)
TTITLE23=The Last Song (feat. P. Diddy, Mark Curry, Big Azz Ko and Loon)
TTITLE24=Thank You
EXTD=
EXTT0=91122919
EXTT1=
EXTT2=
EXTT3=
EXTT4=
EXTT5=
EXTT6=
EXTT7=
EXTT8=
EXTT9=
EXTT10=
EXTT11=
EXTT12=
EXTT13=
EXTT14=
EXTT15=
EXTT16=
EXTT17=
EXTT18=
EXTT19=
EXTT20=
EXTT21=
EXTT22=
EXTT23=
EXTT24=
PLAYORDER=
